<svg xmlns="http://www.w3.org/2000/svg" xmlns:xlink="http://www.w3.org/1999/xlink" width="18" height="18" viewBox="0 0 18 18">
  <defs>
    <clipPath id="clip-path">
      <rect id="Rectangle_22" data-name="Rectangle 22" width="18" height="18" transform="translate(566 447)" fill="#fff" stroke="#707070" stroke-width="1"/>
    </clipPath>
  </defs>
  <g id="Mask_Group_11" data-name="Mask Group 11" transform="translate(-566 -447)" clip-path="url(#clip-path)">
    <g id="googleIcon.18121477" transform="translate(566 447)">
      <path id="Path_29" data-name="Path 29" d="M9,3.563a4.892,4.892,0,0,1,3.454,1.35l2.569-2.569A8.657,8.657,0,0,0,9,0,9,9,0,0,0,.96,4.957L3.952,7.279A5.373,5.373,0,0,1,9,3.563Z" fill="#ea4335"/>
      <path id="Path_30" data-name="Path 30" d="M17.618,9.206A10.947,10.947,0,0,0,17.475,7.5H9v3.382h4.852a4.183,4.183,0,0,1-1.792,2.693l2.9,2.25a8.82,8.82,0,0,0,2.659-6.619Z" fill="#4285f4"/>
      <path id="Path_31" data-name="Path 31" d="M3.949,10.721A5.467,5.467,0,0,1,3.664,9a5.362,5.362,0,0,1,.285-1.721L.956,4.957a9.007,9.007,0,0,0,0,8.085l2.989-2.321Z" fill="#fbbc05"/>
      <path id="Path_32" data-name="Path 32" d="M9,18a8.565,8.565,0,0,0,5.959-2.179l-2.9-2.25a5.45,5.45,0,0,1-8.111-2.854L.956,13.039A9,9,0,0,0,9,18Z" fill="#34a853"/>
      <path id="Path_33" data-name="Path 33" d="M0,0H18V18H0Z" fill="none"/>
    </g>
  </g>
</svg>
