<svg xmlns="http://www.w3.org/2000/svg" xmlns:xlink="http://www.w3.org/1999/xlink" width="29" height="29" viewBox="0 0 29 29">
  <defs>
    <clipPath id="clip-path">
      <rect id="Rectangle_4" data-name="Rectangle 4" width="29" height="29" transform="translate(251 493)" fill="#000000"/>
    </clipPath>
  </defs>
  <g id="Mask_Group_2" data-name="Mask Group 2" transform="translate(-251 -493)" clip-path="url(#clip-path)">
    <path id="_5fabdf87bc2f4171071ee356_plan-dark" data-name="5fabdf87bc2f4171071ee356_plan-dark" d="M22.144,4.735,18.2.782a2.867,2.867,0,0,0-3.824-.1L1.444,13.666a2.89,2.89,0,0,0-.819,1.746L.006,21.427A1.436,1.436,0,0,0,1.444,23h.129l5.994-.548a2.871,2.871,0,0,0,1.739-.822L22.244,8.645a2.777,2.777,0,0,0-.1-3.91ZM7.309,19.566,3,19.97l.388-4.328,8.122-8.05,3.881,3.9ZM17.256,9.554,13.4,5.687l2.8-2.885,3.925,3.939Z" transform="translate(254 496)" fill="#000000"/>
  </g>
</svg>
