<svg xmlns="http://www.w3.org/2000/svg" xmlns:xlink="http://www.w3.org/1999/xlink" width="1118" height="578" viewBox="0 0 1118 578">
  <defs>
    <filter id="Rectangle_108" x="0" y="0" width="1118" height="578" filterUnits="userSpaceOnUse">
      <feOffset dy="3" input="SourceAlpha"/>
      <feGaussianBlur stdDeviation="3" result="blur"/>
      <feFlood flood-opacity="0.161"/>
      <feComposite operator="in" in2="blur"/>
      <feComposite in="SourceGraphic"/>
    </filter>
    <filter id="Rectangle_115" x="0" y="0" width="1118" height="73" filterUnits="userSpaceOnUse">
      <feOffset dy="3" input="SourceAlpha"/>
      <feGaussianBlur stdDeviation="3" result="blur-2"/>
      <feFlood flood-opacity="0.161"/>
      <feComposite operator="in" in2="blur-2"/>
      <feComposite in="SourceGraphic"/>
    </filter>
    <filter id="Ellipse_19" x="538" y="114" width="88" height="88" filterUnits="userSpaceOnUse">
      <feOffset dy="3" input="SourceAlpha"/>
      <feGaussianBlur stdDeviation="3" result="blur-3"/>
      <feFlood flood-opacity="0.161"/>
      <feComposite operator="in" in2="blur-3"/>
      <feComposite in="SourceGraphic"/>
    </filter>
    <filter id="Ellipse_22" x="998" y="114" width="88" height="88" filterUnits="userSpaceOnUse">
      <feOffset dy="3" input="SourceAlpha"/>
      <feGaussianBlur stdDeviation="3" result="blur-4"/>
      <feFlood flood-opacity="0.161"/>
      <feComposite operator="in" in2="blur-4"/>
      <feComposite in="SourceGraphic"/>
    </filter>
    <filter id="Ellipse_20" x="538" y="343" width="88" height="88" filterUnits="userSpaceOnUse">
      <feOffset dy="3" input="SourceAlpha"/>
      <feGaussianBlur stdDeviation="3" result="blur-5"/>
      <feFlood flood-opacity="0.161"/>
      <feComposite operator="in" in2="blur-5"/>
      <feComposite in="SourceGraphic"/>
    </filter>
    <filter id="Ellipse_21" x="998" y="343" width="88" height="88" filterUnits="userSpaceOnUse">
      <feOffset dy="3" input="SourceAlpha"/>
      <feGaussianBlur stdDeviation="3" result="blur-6"/>
      <feFlood flood-opacity="0.161"/>
      <feComposite operator="in" in2="blur-6"/>
      <feComposite in="SourceGraphic"/>
    </filter>
    <linearGradient id="linear-gradient" x1="0.291" y1="0.17" x2="0.777" y2="0.655" gradientUnits="objectBoundingBox">
      <stop offset="0" stop-color="#263238" stop-opacity="0.2"/>
      <stop offset="1" stop-color="#263238" stop-opacity="0.02"/>
    </linearGradient>
    <radialGradient id="radial-gradient" cx="0.143" cy="0.124" r="0.882" gradientTransform="translate(-0.079) scale(1.158 1)" gradientUnits="objectBoundingBox">
      <stop offset="0" stop-color="#fff" stop-opacity="0.102"/>
      <stop offset="1" stop-color="#fff" stop-opacity="0"/>
    </radialGradient>
  </defs>
  <g id="Group_124" data-name="Group 124" transform="translate(9 6)">
    <g id="Group_92" data-name="Group 92" transform="translate(0)">
      <g transform="matrix(1, 0, 0, 1, -9, -6)" filter="url(#Rectangle_108)">
        <rect id="Rectangle_108-2" data-name="Rectangle 108" width="1100" height="560" rx="10" transform="translate(9 6)" fill="#fff"/>
      </g>
    </g>
    <g transform="matrix(1, 0, 0, 1, -9, -6)" filter="url(#Rectangle_115)">
      <path id="Rectangle_115-2" data-name="Rectangle 115" d="M6,0H1094a6,6,0,0,1,6,6V55a0,0,0,0,1,0,0H0a0,0,0,0,1,0,0V6A6,6,0,0,1,6,0Z" transform="translate(9 6)" fill="#fff"/>
    </g>
    <path id="Rectangle_124" data-name="Rectangle 124" d="M0,0H129a0,0,0,0,1,0,0V505a0,0,0,0,1,0,0H6a6,6,0,0,1-6-6V0A0,0,0,0,1,0,0Z" transform="translate(0 55)" fill="#6361f9"/>
    <rect id="Rectangle_125" data-name="Rectangle 125" width="107" height="15" rx="7.5" transform="translate(11 94)" fill="#fff" opacity="0.5"/>
    <rect id="Rectangle_129" data-name="Rectangle 129" width="107" height="17" rx="8" transform="translate(171 94)" fill="#f7c663"/>
    <rect id="Rectangle_137" data-name="Rectangle 137" width="107" height="17" rx="8" transform="translate(171 323)" fill="#f7c663"/>
    <rect id="Rectangle_133" data-name="Rectangle 133" width="33" height="15" rx="7.5" transform="translate(1051 94)" fill="#666"/>
    <rect id="Rectangle_134" data-name="Rectangle 134" width="33" height="15" rx="7.5" transform="translate(1011 94)" fill="#ccc"/>
    <rect id="Rectangle_130" data-name="Rectangle 130" width="402" height="124" rx="8" transform="translate(171 149)" fill="#f7c663"/>
    <rect id="Rectangle_140" data-name="Rectangle 140" width="387" height="124" rx="8" transform="translate(646 149)" fill="#dedede"/>
    <rect id="Rectangle_138" data-name="Rectangle 138" width="402" height="124" rx="8" transform="translate(171 378)" fill="#f7c663"/>
    <rect id="Rectangle_139" data-name="Rectangle 139" width="387" height="124" rx="8" transform="translate(646 378)" fill="#dedede"/>
    <rect id="Rectangle_126" data-name="Rectangle 126" width="72" height="15" rx="7.5" transform="translate(11 140)" fill="#fff" opacity="0.5"/>
    <rect id="Rectangle_127" data-name="Rectangle 127" width="54" height="15" rx="7.5" transform="translate(11 184)" fill="#fff" opacity="0.5"/>
    <rect id="Rectangle_128" data-name="Rectangle 128" width="33" height="15" rx="7.5" transform="translate(11 228)" fill="#fff" opacity="0.5"/>
    <circle id="Ellipse_8" data-name="Ellipse 8" cx="3.5" cy="3.5" r="3.5" transform="translate(11 24)" fill="#dedede"/>
    <circle id="Ellipse_9" data-name="Ellipse 9" cx="3.5" cy="3.5" r="3.5" transform="translate(24 24)" fill="#dedede"/>
    <circle id="Ellipse_10" data-name="Ellipse 10" cx="3.5" cy="3.5" r="3.5" transform="translate(37 24)" fill="#dedede"/>
    <g transform="matrix(1, 0, 0, 1, -9, -6)" filter="url(#Ellipse_19)">
      <circle id="Ellipse_19-2" data-name="Ellipse 19" cx="35" cy="35" r="35" transform="translate(547 120)" fill="#fff"/>
    </g>
    <g transform="matrix(1, 0, 0, 1, -9, -6)" filter="url(#Ellipse_22)">
      <circle id="Ellipse_22-2" data-name="Ellipse 22" cx="35" cy="35" r="35" transform="translate(1007 120)" fill="#fff"/>
    </g>
    <g transform="matrix(1, 0, 0, 1, -9, -6)" filter="url(#Ellipse_20)">
      <circle id="Ellipse_20-2" data-name="Ellipse 20" cx="35" cy="35" r="35" transform="translate(547 349)" fill="#fff"/>
    </g>
    <g transform="matrix(1, 0, 0, 1, -9, -6)" filter="url(#Ellipse_21)">
      <circle id="Ellipse_21-2" data-name="Ellipse 21" cx="35" cy="35" r="35" transform="translate(1007 349)" fill="#fff"/>
    </g>
    <g id="google-meet" transform="translate(555.174 131.174)">
      <path id="Path_85" data-name="Path 85" d="M0,0H35.652V35.652H0Z" fill="none"/>
      <path id="Path_86" data-name="Path 86" d="M42.807,19.943a14.113,14.113,0,1,0-28.227,0c0,7.383,6.733,13.37,14.113,13.37v5.2C37.265,34.163,42.807,27.165,42.807,19.943Z" transform="translate(-10.867 -4.345)" fill="#00897b"/>
      <path id="Path_87" data-name="Path 87" d="M56.948,41.2,55.1,46.306H44.88l-4.1,5.027L55.807,66.36H65.861V50.113Z" transform="translate(-30.395 -30.708)" fill="url(#linear-gradient)"/>
      <path id="Path_88" data-name="Path 88" d="M28.693,74.143c-7.352,0-14.057-5.939-14.111-13.283,0,.033,0,.066,0,.1,0,7.383,6.733,13.37,14.113,13.37Zm0,5.2v.186c8.572-4.35,14.113-11.348,14.113-18.57,0-.031,0-.061,0-.089C42.756,68.057,37.227,75.014,28.693,79.343Zm3.158-12.815H22.566a1.861,1.861,0,0,1-1.859-1.859v.186a1.861,1.861,0,0,0,1.859,1.859h9.285a1.861,1.861,0,0,0,1.859-1.859V64.67a1.861,1.861,0,0,1-1.859,1.859Zm1.856-3.991,3.713,3.713v-.186l-3.713-3.713Z" transform="translate(-10.867 -45.361)" fill="#263238" opacity="0.2"/>
      <path id="Path_89" data-name="Path 89" d="M51.64,43.549v-2.32a1.861,1.861,0,0,0-1.859-1.859H40.5a1.861,1.861,0,0,0-1.859,1.859v7.428A1.861,1.861,0,0,0,40.5,50.516h9.285a1.861,1.861,0,0,0,1.859-1.859v-2.32l3.713,3.713V39.836Z" transform="translate(-28.8 -29.344)" fill="#f5f5f5"/>
      <path id="Path_90" data-name="Path 90" d="M38.65,41.229v3.713H55.361V39.836l-3.713,3.713v-2.32a1.861,1.861,0,0,0-1.859-1.859H40.506a1.856,1.856,0,0,0-1.856,1.859Z" transform="translate(-28.807 -29.344)" fill="#e0e0e0"/>
      <path id="Path_91" data-name="Path 91" d="M38.65,60.52H55.361v.186H38.65Z" transform="translate(-28.807 -45.108)" fill="rgba(33,33,33,0.02)"/>
      <g id="Group_127" data-name="Group 127" transform="translate(3.713 1.482)">
        <path id="Path_92" data-name="Path 92" d="M38.65,61.25H55.361v.186H38.65Z" transform="translate(-32.52 -47.134)" fill="rgba(255,255,255,0.05)"/>
        <path id="Path_93" data-name="Path 93" d="M40.5,39.556h9.285a1.861,1.861,0,0,1,1.859,1.859v-.186a1.861,1.861,0,0,0-1.859-1.859H40.5a1.861,1.861,0,0,0-1.859,1.859v.186A1.861,1.861,0,0,1,40.5,39.556ZM51.64,43.549v.186l3.713-3.713v-.186Z" transform="translate(-32.513 -30.826)" fill="#fff" opacity="0.2"/>
        <path id="Path_94" data-name="Path 94" d="M28.693,6.008A14.114,14.114,0,0,1,42.8,20.03c0-.033,0-.064,0-.1a14.113,14.113,0,1,0-28.227,0c0,.031,0,.059,0,.087A14.116,14.116,0,0,1,28.693,6.008Z" transform="translate(-14.58 -5.82)" fill="#fff" opacity="0.2"/>
      </g>
      <path id="Path_95" data-name="Path 95" d="M42.807,19.943a14.113,14.113,0,1,0-28.227,0c0,7.383,6.733,13.37,14.113,13.37v5.2C37.265,34.163,42.807,27.165,42.807,19.943Z" transform="translate(-10.867 -4.345)" fill="url(#radial-gradient)"/>
    </g>
    <g id="google-meet-2" data-name="google-meet" transform="translate(1015.174 360.174)">
      <path id="Path_85-2" data-name="Path 85" d="M0,0H35.652V35.652H0Z" fill="none"/>
      <path id="Path_86-2" data-name="Path 86" d="M42.807,19.943a14.113,14.113,0,1,0-28.227,0c0,7.383,6.733,13.37,14.113,13.37v5.2C37.265,34.163,42.807,27.165,42.807,19.943Z" transform="translate(-10.867 -4.345)" fill="#00897b"/>
      <path id="Path_87-2" data-name="Path 87" d="M56.948,41.2,55.1,46.306H44.88l-4.1,5.027L55.807,66.36H65.861V50.113Z" transform="translate(-30.395 -30.708)" fill="url(#linear-gradient)"/>
      <path id="Path_88-2" data-name="Path 88" d="M28.693,74.143c-7.352,0-14.057-5.939-14.111-13.283,0,.033,0,.066,0,.1,0,7.383,6.733,13.37,14.113,13.37Zm0,5.2v.186c8.572-4.35,14.113-11.348,14.113-18.57,0-.031,0-.061,0-.089C42.756,68.057,37.227,75.014,28.693,79.343Zm3.158-12.815H22.566a1.861,1.861,0,0,1-1.859-1.859v.186a1.861,1.861,0,0,0,1.859,1.859h9.285a1.861,1.861,0,0,0,1.859-1.859V64.67a1.861,1.861,0,0,1-1.859,1.859Zm1.856-3.991,3.713,3.713v-.186l-3.713-3.713Z" transform="translate(-10.867 -45.361)" fill="#263238" opacity="0.2"/>
      <path id="Path_89-2" data-name="Path 89" d="M51.64,43.549v-2.32a1.861,1.861,0,0,0-1.859-1.859H40.5a1.861,1.861,0,0,0-1.859,1.859v7.428A1.861,1.861,0,0,0,40.5,50.516h9.285a1.861,1.861,0,0,0,1.859-1.859v-2.32l3.713,3.713V39.836Z" transform="translate(-28.8 -29.344)" fill="#f5f5f5"/>
      <path id="Path_90-2" data-name="Path 90" d="M38.65,41.229v3.713H55.361V39.836l-3.713,3.713v-2.32a1.861,1.861,0,0,0-1.859-1.859H40.506a1.856,1.856,0,0,0-1.856,1.859Z" transform="translate(-28.807 -29.344)" fill="#e0e0e0"/>
      <path id="Path_91-2" data-name="Path 91" d="M38.65,60.52H55.361v.186H38.65Z" transform="translate(-28.807 -45.108)" fill="rgba(33,33,33,0.02)"/>
      <g id="Group_127-2" data-name="Group 127" transform="translate(3.713 1.482)">
        <path id="Path_92-2" data-name="Path 92" d="M38.65,61.25H55.361v.186H38.65Z" transform="translate(-32.52 -47.134)" fill="rgba(255,255,255,0.05)"/>
        <path id="Path_93-2" data-name="Path 93" d="M40.5,39.556h9.285a1.861,1.861,0,0,1,1.859,1.859v-.186a1.861,1.861,0,0,0-1.859-1.859H40.5a1.861,1.861,0,0,0-1.859,1.859v.186A1.861,1.861,0,0,1,40.5,39.556ZM51.64,43.549v.186l3.713-3.713v-.186Z" transform="translate(-32.513 -30.826)" fill="#fff" opacity="0.2"/>
        <path id="Path_94-2" data-name="Path 94" d="M28.693,6.008A14.114,14.114,0,0,1,42.8,20.03c0-.033,0-.064,0-.1a14.113,14.113,0,1,0-28.227,0c0,.031,0,.059,0,.087A14.116,14.116,0,0,1,28.693,6.008Z" transform="translate(-14.58 -5.82)" fill="#fff" opacity="0.2"/>
      </g>
      <path id="Path_95-2" data-name="Path 95" d="M42.807,19.943a14.113,14.113,0,1,0-28.227,0c0,7.383,6.733,13.37,14.113,13.37v5.2C37.265,34.163,42.807,27.165,42.807,19.943Z" transform="translate(-10.867 -4.345)" fill="url(#radial-gradient)"/>
    </g>
    <g id="microsoft-teams-1" transform="translate(555 360)">
      <circle id="Ellipse_17" data-name="Ellipse 17" cx="5.225" cy="5.225" r="5.225" transform="translate(13.808 1.492)" fill="#7b83eb"/>
      <path id="Path_72" data-name="Path 72" d="M17.172,7H12.44l.024.1,0,.009.025.1a5.23,5.23,0,0,0,6.174,3.775V8.492A1.5,1.5,0,0,0,17.172,7Z" transform="translate(1.487 0.837)" opacity="0.1"/>
      <path id="Path_73" data-name="Path 73" d="M16.012,8H12.783A5.225,5.225,0,0,0,17.5,10.986V9.492A1.5,1.5,0,0,0,16.012,8Z" transform="translate(1.528 0.957)" opacity="0.2"/>
      <ellipse id="Ellipse_18" data-name="Ellipse 18" cx="4" cy="3.5" rx="4" ry="3.5" transform="translate(27 5)" fill="#5059c9"/>
      <path id="Path_74" data-name="Path 74" d="M31.517,12h-8.8a.717.717,0,0,0-.717.717V21.8a5.733,5.733,0,0,0,4.441,5.692A5.6,5.6,0,0,0,33.2,22.007V13.679A1.679,1.679,0,0,0,31.517,12Z" transform="translate(2.63 1.435)" fill="#5059c9"/>
      <path id="Path_75" data-name="Path 75" d="M26.913,13.679V24.315a8.951,8.951,0,0,1-16.7,4.478,8.031,8.031,0,0,1-.56-1.12,9.368,9.368,0,0,1-.369-1.12A9.225,9.225,0,0,1,9,24.315V13.679A1.677,1.677,0,0,1,10.679,12H25.234a1.677,1.677,0,0,1,1.679,1.679Z" transform="translate(1.076 1.435)" fill="#7b83eb"/>
      <path id="Path_76" data-name="Path 76" d="M16.012,8H12.783A5.225,5.225,0,0,0,17.5,10.986V9.492A1.5,1.5,0,0,0,16.012,8Z" transform="translate(1.528 0.957)" opacity="0.2"/>
      <path id="Path_77" data-name="Path 77" d="M19.076,12V26.185a1.478,1.478,0,0,1-1.164,1.444,1.082,1.082,0,0,1-.325.045H9.649a9.368,9.368,0,0,1-.369-1.12A9.225,9.225,0,0,1,9,24.315V13.679A1.677,1.677,0,0,1,10.679,12Z" transform="translate(1.076 1.435)" opacity="0.1"/>
      <path id="Path_78" data-name="Path 78" d="M17.957,12V27.3a1.083,1.083,0,0,1-.045.325,1.478,1.478,0,0,1-1.444,1.164H10.209a8.031,8.031,0,0,1-.56-1.12,9.368,9.368,0,0,1-.369-1.12A9.225,9.225,0,0,1,9,24.315V13.679A1.677,1.677,0,0,1,10.679,12Z" transform="translate(1.076 1.435)" opacity="0.2"/>
      <path id="Path_79" data-name="Path 79" d="M17.957,12V25.065a1.5,1.5,0,0,1-1.489,1.489H9.28A9.225,9.225,0,0,1,9,24.315V13.679A1.677,1.677,0,0,1,10.679,12Z" transform="translate(1.076 1.435)" opacity="0.2"/>
      <path id="Path_80" data-name="Path 80" d="M10.679,12A1.677,1.677,0,0,0,9,13.679V24.315a9.225,9.225,0,0,0,.28,2.239h6.068a1.5,1.5,0,0,0,1.489-1.489V12Z" transform="translate(1.076 1.435)" opacity="0.2"/>
      <path id="Path_81" data-name="Path 81" d="M1.492,8H16.421a1.492,1.492,0,0,1,1.492,1.492V24.421a1.492,1.492,0,0,1-1.492,1.492H1.492A1.492,1.492,0,0,1,0,24.421V9.492A1.492,1.492,0,0,1,1.492,8Z" transform="translate(0 0.957)" fill="#4b53bc"/>
      <path id="Path_82" data-name="Path 82" d="M12.932,13.211H9.584v8.979h-2.2V13.211H4.02V11.005h8.912Z" transform="translate(0.481 1.316)" fill="#fff"/>
      <path id="Path_83" data-name="Path 83" d="M0,0H35.826V35.826H0Z" fill="none"/>
    </g>
    <path id="zoom-communications-logo" d="M36.191,3.7a2.155,2.155,0,0,1,.244,1l.024.5V8.694l.025.5a1.534,1.534,0,0,0,1.475,1.473l.5.025V5.2l.025-.5a2.188,2.188,0,0,1,.248-1.006,2,2,0,0,1,3.456.006,2.2,2.2,0,0,1,.243,1l.025.5v3.5l.025.5a1.528,1.528,0,0,0,1.475,1.473l.5.025V4.7a3.995,3.995,0,0,0-6.991-2.643,3.992,3.992,0,0,0-5.234-.668A2.756,2.756,0,0,0,30.465.7v9.988l.5-.025a1.5,1.5,0,0,0,1.473-1.473l.027-.5V5.2l.025-.5a2.19,2.19,0,0,1,.244-1,2,2,0,0,1,3.458,0ZM2,10.667l.5.024H9.988l-.025-.5A1.546,1.546,0,0,0,8.491,8.718l-.5-.025H3.5L9.489,2.7l-.025-.5A1.51,1.51,0,0,0,7.991.727L7.491.7,0,.7l.025.5A1.549,1.549,0,0,0,1.5,2.675L2,2.7H6.492L.5,8.694l.025.5A1.524,1.524,0,0,0,2,10.666ZM28.5,2.165A5,5,0,1,1,24.969.7,4.994,4.994,0,0,1,28.5,2.165ZM27.091,3.579a3,3,0,1,1-4.238,0,3,3,0,0,1,4.238,0ZM14.487.7a5,5,0,1,1-.006,0h.006ZM16.6,3.578a3,3,0,1,1-4.238,0,3,3,0,0,1,4.238,0Z" transform="translate(1010.513 143.298)" fill="#2d8cff" fill-rule="evenodd"/>
  </g>
</svg>
