<svg xmlns="http://www.w3.org/2000/svg" width="107.521" height="65" viewBox="0 0 107.521 65">
  <g id="hyundai-automobiles-1" transform="translate(0 0.001)">
    <path id="Path_66" data-name="Path 66" d="M83.012,6.4c5.415,2.963,11.543,8.173,10.9,15.118-.743,6.437-6.743,10.931-12.1,13.638C66.155,42.635,44.169,42.864,28,36.326c-5.462-2.274-11.593-6.182-13.891-12.054-1.759-4.826.383-9.855,3.985-13.2C25.633,4.226,35.235,1.878,45.117.523A72.707,72.707,0,0,1,76.732,3.664,51.4,51.4,0,0,1,83.012,6.4Zm17.751,43.06V65H97.384v-4.47H89.675V65H86.3V52.811c0-2.155.871-3.358,3.379-3.358h11.088Z" fill="#397db7"/>
    <path id="Path_67" data-name="Path 67" d="M97.384,52.309H91.039c-1.067.062-1.361.327-1.361,1.623v3.563h7.709V52.309Z" fill="#fff"/>
    <path id="Path_68" data-name="Path 68" d="M82.917,52.811v8.411c0,2.678-1.5,3.777-3.379,3.777H68.88V49.456H79.537C82.417,49.453,82.917,51.28,82.917,52.811Z" fill="#397db7"/>
    <path id="Path_69" data-name="Path 69" d="M79.5,53.744a1.333,1.333,0,0,0-1.427-1.438h-5.81v9.715h5.81c1.325-.068,1.427-.862,1.427-1.492Z" fill="#fff"/>
    <path id="Path_70" data-name="Path 70" d="M0,49.453H3.379v6.125H10.94V49.453h3.379V65H10.94V58.651H3.379V65H0Zm20.111,0L24.346,55.8l4.184-6.351h4.1l-6.6,9.935V65H22.655V59.388l-6.648-9.935Zm31.49,0H62.491c1.551,0,3.055.217,3.011,3.358V65H62.122V53.928c0-1.34-.16-1.623-1.21-1.623H54.98V65H51.6Zm52.541,0h3.379V65h-3.379ZM34.323,65H45.212c2.167,0,3.055-.627,3.011-3.751V49.453H44.843V60.547c0,1.331-.16,1.492-1.213,1.492H37.7V49.453H34.32V65Z" fill="#397db7"/>
    <path id="Path_71" data-name="Path 71" d="M62.149,25.243c.615,3.165-1.046,5.8-2.425,8.351-1.534,2.375-4.06,4.416-7.1,4.113a72.173,72.173,0,0,1-19.662-3.014,1.227,1.227,0,0,1-.716-.511.85.85,0,0,1,.309-.918c5.644-4.571,12.36-6.69,19-8.913,2.476-.716,5.109-1.483,7.89-1.123A3.432,3.432,0,0,1,62.149,25.243ZM85.413,11.709c3.165,2.6,6.027,6.155,5.055,10.443C88.884,28.486,81.989,31.859,76.5,34a41.415,41.415,0,0,1-9.269,2.324c-.205-.024-.538.027-.588-.279l.077-.357A82.711,82.711,0,0,0,77.98,18.631c1.429-2.681,2.758-5.439,3.982-8.146a1.358,1.358,0,0,1,.562-.383C83.677,10.2,84.495,11.094,85.413,11.709ZM40.852,4.966l-.1.383c-6.717,7.635-11.133,16.5-15.32,25.306-.817.767-1.611-.256-2.351-.585-3.727-2.452-7.1-6.41-6.125-11.109,1.557-6.128,7.864-9.4,13.127-11.62a49.207,49.207,0,0,1,9.781-2.657c.354,0,.814-.048.993.282ZM74.176,6.193c.383.2.844.279,1.073.663.205.434-.205.716-.434,1C69.528,11.989,63.477,14.286,57.3,16.3c-3.141.764-6.309,2.146-9.807,1.379a3.257,3.257,0,0,1-2.018-1.534c-.868-2.4.306-4.9,1.328-7,1.355-2.63,3.754-5.721,7.073-5.771a73.221,73.221,0,0,1,20.3,2.811Z" fill="#fff"/>
  </g>
</svg>
